name C:\Users\r0593348\3dpredictsim\Results\Batchsim_tmt_linear_v2\Pog_s1_tmt_bCst_d02_k500_ig24_act.mot
datacolumns 128
datarows 4
range 0.64838841 0.68729172
endheader
time	pelvis_tilt	pelvis_list	pelvis_rotation	pelvis_tx	pelvis_ty	pelvis_tz	hip_flexion_l	hip_adduction_l	hip_rotation_l	hip_flexion_r	hip_adduction_r	hip_rotation_r	knee_angle_l	knee_angle_r	ankle_angle_l	ankle_angle_r	subtalar_angle_l	subtalar_angle_r	tmt_angle_l	tmt_angle_r	mtp_angle_l	mtp_angle_r	lumbar_extension	lumbar_bending	lumbar_rotation	arm_flex_l	arm_add_l	arm_rot_l	arm_flex_r	arm_add_r	arm_rot_r	elbow_flex_l	elbow_flex_r	pro_sup_l	pro_sup_r	glut_med1_l/activation	glut_med2_l/activation	glut_med3_l/activation	glut_min1_l/activation	glut_min2_l/activation	glut_min3_l/activation	semimem_l/activation	semiten_l/activation	bifemlh_l/activation	bifemsh_l/activation	sar_l/activation	add_long_l/activation	add_brev_l/activation	add_mag1_l/activation	add_mag2_l/activation	add_mag3_l/activation	tfl_l/activation	pect_l/activation	grac_l/activation	glut_max1_l/activation	glut_max2_l/activation	glut_max3_l/activation	iliacus_l/activation	psoas_l/activation	quad_fem_l/activation	gem_l/activation	peri_l/activation	rect_fem_l/activation	vas_med_l/activation	vas_int_l/activation	vas_lat_l/activation	med_gas_l/activation	lat_gas_l/activation	soleus_l/activation	tib_post_l/activation	flex_dig_l/activation	flex_hal_l/activation	tib_ant_l/activation	per_brev_l/activation	per_long_l/activation	per_tert_l/activation	ext_dig_l/activation	ext_hal_l/activation	ercspn_l/activation	intobl_l/activation	extobl_l/activation	glut_med1_r/activation	glut_med2_r/activation	glut_med3_r/activation	glut_min1_r/activation	glut_min2_r/activation	glut_min3_r/activation	semimem_r/activation	semiten_r/activation	bifemlh_r/activation	bifemsh_r/activation	sar_r/activation	add_long_r/activation	add_brev_r/activation	add_mag1_r/activation	add_mag2_r/activation	add_mag3_r/activation	tfl_r/activation	pect_r/activation	grac_r/activation	glut_max1_r/activation	glut_max2_r/activation	glut_max3_r/activation	iliacus_r/activation	psoas_r/activation	quad_fem_r/activation	gem_r/activation	peri_r/activation	rect_fem_r/activation	vas_med_r/activation	vas_int_r/activation	vas_lat_r/activation	med_gas_r/activation	lat_gas_r/activation	soleus_r/activation	tib_post_r/activation	flex_dig_r/activation	flex_hal_r/activation	tib_ant_r/activation	per_brev_r/activation	per_long_r/activation	per_tert_r/activation	ext_dig_r/activation	ext_hal_r/activation	ercspn_r/activation	intobl_r/activation	extobl_r/activation	
          0.64838841	          3.43108948	         -2.21429629	         -9.51098440	          0.81048552	          0.86152626	          0.00109797	         30.09134762	         -3.22007944	         -0.95232766	        -25.42634765	         -0.61291427	          0.71405595	        -16.34743106	        -14.16782099	        -33.37143744	        -21.18465744	         -0.20660141	          0.23388821	         -0.10048850	          2.05404808	         -0.55721387	         41.46853738	         -1.68322350	          6.35649371	          2.07727259	          1.48129634	        -13.52352991	         11.86151890	        -15.20647459	        -14.08321567	         16.32217920	         17.07964068	         15.26840355	         86.51662706	         86.51662706	          0.06192185	          0.06080684	          0.08946933	          0.05000025	          0.05000039	          0.05000163	          0.09129627	          0.08993167	          0.08993120	          0.12858452	          0.07237158	          0.05006172	          0.05000039	          0.18456232	          0.21827628	          0.16921246	          0.05000034	          0.05000053	          0.14157893	          0.06081139	          0.14541771	          0.20701458	          0.10975568	          0.11044156	          0.11926066	          0.06080653	          0.07917367	          0.05000003	          0.05000010	          0.05000004	          0.05000007	          0.06080648	          0.06080649	          0.06080646	          0.06370065	          0.08337177	          0.08538301	          0.05000000	          0.06080655	          0.08210666	          0.20685609	          0.05000010	          0.05000021	          0.05000000	          0.23077264	          0.13781187	          0.14225229	          0.05000016	          0.05000010	          0.15913003	          0.05468036	          0.05000038	          0.05000669	          0.06080642	          0.06066750	          0.06080652	          0.06081152	          0.33770944	          0.20826341	          0.23339271	          0.05000570	          0.05000268	          0.10032620	          0.15214371	          0.06080626	          0.05000182	          0.05000136	          0.05000154	          0.40135985	          0.60213296	          0.05000028	          0.05000135	          0.05000051	          0.23556442	          0.08794304	          0.10587244	          0.07539026	          0.05000002	          0.09179420	          0.05000001	          0.16397696	          0.15139857	          0.16430472	          0.06811028	          0.20651411	          0.13771819	          0.49048485	          0.42246605	          0.06080653	          0.05000003	          0.05000031	          0.09977513	
          0.66135618	          3.44614012	         -2.36583015	         -9.37898835	          0.83337185	          0.86094563	          0.00065460	         29.75524833	         -3.13664390	         -0.85317139	        -25.16090812	         -0.76500195	          0.34010494	        -17.87862720	        -16.21967025	        -30.73307162	        -25.04055609	          0.71201154	         -0.07820728	          0.01906355	          1.58911779	          0.05173620	         42.04562004	         -1.36202409	          6.06550172	          2.17711642	         -0.78953096	        -13.46898443	         12.35526983	        -14.96735944	        -14.18347107	         16.39096236	         17.56450482	         14.71742758	         86.51662706	         86.51662706	          0.11737433	          0.05000062	          0.35709615	          0.11702340	          0.06080710	          0.05000031	          0.07507118	          0.07394911	          0.07394871	          0.10573261	          0.05950982	          0.07878106	          0.08993152	          0.15176220	          0.17948464	          0.17530859	          0.05000013	          0.07395067	          0.11641773	          0.05000411	          0.11978129	          0.22143471	          0.09025001	          0.09081399	          0.09806580	          0.05000027	          0.33217403	          0.05000002	          0.05000007	          0.22019789	          0.05000007	          0.05000001	          0.05000002	          0.05000000	          0.05237983	          0.06855505	          0.07020883	          0.07394854	          0.05000008	          0.06751474	          0.35050080	          0.11148782	          0.12957670	          0.05000007	          0.18975994	          0.11332007	          0.13300605	          0.05000004	          0.05000002	          0.13084971	          0.05000027	          0.05000010	          0.05000144	          0.05000013	          0.05000019	          0.05000020	          0.05000571	          0.27769270	          0.27611540	          0.19191451	          0.05001517	          0.05000064	          0.08249642	          0.12510775	          0.05000069	          0.05000111	          0.05000083	          0.05000084	          0.33003055	          0.49512319	          0.05000007	          0.05000011	          0.05000005	          0.19370012	          0.07231392	          0.08705693	          0.06199200	          0.05762950	          0.07699122	          0.06080393	          0.13483512	          0.12449220	          0.13510465	          0.13291392	          0.24000281	          0.12721646	          0.64221342	          0.59049938	          0.05000010	          0.06184157	          0.05000000	          0.08204321	
          0.67432395	          3.46586608	         -2.49532110	         -9.19720175	          0.85604954	          0.85988661	          0.00019699	         29.26585597	         -2.99856054	         -0.76367279	        -24.62467950	         -0.90055393	          0.01758740	        -20.08776936	        -18.77505621	        -27.29207713	        -28.20717160	          1.61363965	         -0.43273802	          0.47194409	          1.26408369	          1.95161073	         40.47975005	         -1.07669909	          5.71981865	          2.26219699	         -3.02743404	        -13.45561844	         12.95579943	        -14.67452336	        -14.26528177	         16.40737708	         18.02215544	         14.15948275	         86.51662706	         86.51662706	          0.21517680	          0.25664922	          0.43947934	          0.09622618	          0.05000070	          0.28958457	          0.06172960	          0.06080695	          0.06080662	          0.08694191	          0.07394931	          0.06478018	          0.07394899	          0.12479119	          0.14758682	          0.14415302	          0.06080744	          0.06080842	          0.09572810	          0.17718919	          0.15856884	          0.18208157	          0.07421087	          0.07467462	          0.28619095	          0.11155884	          0.27314055	          0.07394851	          0.24144057	          0.29316258	          0.23942820	          0.10936769	          0.10936766	          0.10737370	          0.23484170	          0.34221301	          0.25683840	          0.06080647	          0.08993118	          0.08993111	          0.28821012	          0.09167430	          0.10654846	          0.05000000	          0.15603597	          0.09318093	          0.10936839	          0.05000056	          0.05000086	          0.10759531	          0.05000067	          0.05000093	          0.06070122	          0.05000139	          0.06068927	          0.05000011	          0.05000102	          0.23695050	          0.38703415	          0.24976224	          0.10152425	          0.12139101	          0.06783529	          0.10287426	          0.05001286	          0.05000355	          0.05000335	          0.05000855	          0.27137782	          0.40713034	          0.05079835	          0.05002520	          0.05000047	          0.15927591	          0.05946259	          0.10936679	          0.09831007	          0.05000010	          0.07512853	          0.05000005	          0.11087234	          0.10236762	          0.11109398	          0.13194360	          0.21214762	          0.11162643	          0.52807990	          0.78037182	          0.38704472	          0.09340702	          0.05627990	          0.07394860	
          0.68729172	          3.48367813	         -2.58596187	         -8.97156327	          0.87817931	          0.85893292	         -0.00029384	         28.44808938	         -2.78529028	         -0.66551822	        -23.81612132	         -1.03028449	         -0.23935556	        -22.06638626	        -21.68305357	        -22.94234320	        -30.83394215	          2.53593506	         -0.85038254	          0.96992978	          0.89607150	          3.95541324	         36.84231121	         -0.83451999	          5.31686143	          2.33144121	         -5.16514544	        -13.45503130	         13.69495986	        -14.24418306	        -14.29757541	         16.34715507	         18.37955896	         13.51758990	         86.51662706	         86.51662706	          0.23847199	          0.39375395	          0.60636608	          0.07912647	          0.22080574	          0.35784003	          0.05075909	          0.05000043	          0.05000015	          0.07149070	          0.06080720	          0.05326755	          0.06080686	          0.10261346	          0.12135793	          0.14350731	          0.05000098	          0.05000216	          0.07871546	          0.27686559	          0.21539419	          0.16175711	          0.06102219	          0.06140352	          0.26424313	          0.14704334	          0.36185338	          0.06080646	          0.19853204	          0.24106210	          0.27949016	          0.08993096	          0.08993095	          0.08829134	          0.21840291	          0.28139732	          0.21119336	          0.05000001	          0.07394869	          0.07394864	          0.23698970	          0.07538204	          0.08761280	          0.05041006	          0.12830540	          0.07662090	          0.08993177	          0.05000001	          0.05000000	          0.08847398	          0.05000012	          0.05000003	          0.07907329	          0.05000011	          0.05000038	          0.05000007	          0.05000098	          0.19705196	          0.34752617	          0.20537502	          0.08348254	          0.09981781	          0.05577982	          0.08459221	          0.05000015	          0.05000041	          0.05000027	          0.05000024	          0.22314880	          0.33477555	          0.05000002	          0.05000006	          0.05000002	          0.13096953	          0.07344952	          0.08993036	          0.08083858	          0.12358545	          0.06177696	          0.06850764	          0.09116821	          0.08417500	          0.09135047	          0.18189822	          0.22053071	          0.10067985	          0.74689424	          0.64168531	          0.31825949	          0.10952321	          0.05000000	          0.06080653	
